<svg width="26" height="26" viewBox="0 0 26 26" fill="none" xmlns="http://www.w3.org/2000/svg">
<path fill-rule="evenodd" clip-rule="evenodd" d="M2.0625 6.75V22.375C2.0625 22.7894 2.22712 23.1868 2.52015 23.4799C2.81317 23.7729 3.2106 23.9375 3.625 23.9375H22.375C22.7894 23.9375 23.1868 23.7729 23.4799 23.4799C23.7729 23.1868 23.9375 22.7894 23.9375 22.375V6.75H2.0625ZM3.625 2.0625C2.7962 2.0625 2.00134 2.39174 1.41529 2.97779C0.82924 3.56384 0.5 4.3587 0.5 5.1875L0.5 22.375C0.5 23.2038 0.82924 23.9987 1.41529 24.5847C2.00134 25.1708 2.7962 25.5 3.625 25.5H22.375C23.2038 25.5 23.9987 25.1708 24.5847 24.5847C25.1708 23.9987 25.5 23.2038 25.5 22.375V5.1875C25.5 4.3587 25.1708 3.56384 24.5847 2.97779C23.9987 2.39174 23.2038 2.0625 22.375 2.0625H3.625Z" fill="#010620"/>
<path fill-rule="evenodd" clip-rule="evenodd" d="M5.96875 0.5C6.17595 0.5 6.37466 0.58231 6.52118 0.728823C6.66769 0.875336 6.75 1.07405 6.75 1.28125V2.0625C6.75 2.2697 6.66769 2.46841 6.52118 2.61493C6.37466 2.76144 6.17595 2.84375 5.96875 2.84375C5.76155 2.84375 5.56284 2.76144 5.41632 2.61493C5.26981 2.46841 5.1875 2.2697 5.1875 2.0625V1.28125C5.1875 1.07405 5.26981 0.875336 5.41632 0.728823C5.56284 0.58231 5.76155 0.5 5.96875 0.5ZM20.0313 0.5C20.2385 0.5 20.4372 0.58231 20.5837 0.728823C20.7302 0.875336 20.8125 1.07405 20.8125 1.28125V2.0625C20.8125 2.2697 20.7302 2.46841 20.5837 2.61493C20.4372 2.76144 20.2385 2.84375 20.0313 2.84375C19.8241 2.84375 19.6253 2.76144 19.4788 2.61493C19.3323 2.46841 19.25 2.2697 19.25 2.0625V1.28125C19.25 1.07405 19.3323 0.875336 19.4788 0.728823C19.6253 0.58231 19.8241 0.5 20.0313 0.5Z" fill="#010620"/>
<path d="M17.6875 10.6562C17.6875 10.449 17.7698 10.2503 17.9163 10.1038C18.0628 9.95731 18.2615 9.875 18.4688 9.875H20.0312C20.2385 9.875 20.4372 9.95731 20.5837 10.1038C20.7302 10.2503 20.8125 10.449 20.8125 10.6562V12.2187C20.8125 12.426 20.7302 12.6247 20.5837 12.7712C20.4372 12.9177 20.2385 13 20.0312 13H18.4688C18.2615 13 18.0628 12.9177 17.9163 12.7712C17.7698 12.6247 17.6875 12.426 17.6875 12.2187V10.6562ZM13 10.6562C13 10.449 13.0823 10.2503 13.2288 10.1038C13.3753 9.95731 13.574 9.875 13.7812 9.875H15.3438C15.551 9.875 15.7497 9.95731 15.8962 10.1038C16.0427 10.2503 16.125 10.449 16.125 10.6562V12.2187C16.125 12.426 16.0427 12.6247 15.8962 12.7712C15.7497 12.9177 15.551 13 15.3438 13H13.7812C13.574 13 13.3753 12.9177 13.2288 12.7712C13.0823 12.6247 13 12.426 13 12.2187V10.6562ZM5.1875 15.3437C5.1875 15.1365 5.26981 14.9378 5.41632 14.7913C5.56284 14.6448 5.76155 14.5625 5.96875 14.5625H7.53125C7.73845 14.5625 7.93716 14.6448 8.08368 14.7913C8.23019 14.9378 8.3125 15.1365 8.3125 15.3437V16.9062C8.3125 17.1134 8.23019 17.3122 8.08368 17.4587C7.93716 17.6052 7.73845 17.6875 7.53125 17.6875H5.96875C5.76155 17.6875 5.56284 17.6052 5.41632 17.4587C5.26981 17.3122 5.1875 17.1134 5.1875 16.9062V15.3437ZM9.875 15.3437C9.875 15.1365 9.95731 14.9378 10.1038 14.7913C10.2503 14.6448 10.449 14.5625 10.6562 14.5625H12.2188C12.426 14.5625 12.6247 14.6448 12.7712 14.7913C12.9177 14.9378 13 15.1365 13 15.3437V16.9062C13 17.1134 12.9177 17.3122 12.7712 17.4587C12.6247 17.6052 12.426 17.6875 12.2188 17.6875H10.6562C10.449 17.6875 10.2503 17.6052 10.1038 17.4587C9.95731 17.3122 9.875 17.1134 9.875 16.9062V15.3437Z" fill="#010620"/>
</svg>
